<svg width="80" height="81" viewBox="0 0 80 81" fill="none" xmlns="http://www.w3.org/2000/svg">
<path d="M30.5328 13.2467C30.7994 14.1801 31.5994 14.7134 32.3994 14.7134C32.5328 14.7134 32.7994 14.7134 32.9328 14.5801C33.9994 14.3134 34.6661 13.2467 34.3994 12.1801L33.0661 6.98006C32.7994 5.91339 31.7328 5.24672 30.6661 5.51339C29.5994 5.78006 28.9328 6.84672 29.1994 7.91339L30.5328 13.2467Z" fill="white"/>
<path d="M49.5993 68.9801C49.3326 67.9134 48.266 67.2467 47.1993 67.5134C46.1326 67.7801 45.466 68.8467 45.7326 69.9134L47.066 74.8467C47.3326 75.7801 48.1326 76.3134 48.9326 76.3134C49.066 76.3134 49.3326 76.3134 49.466 76.1801C50.5326 75.9134 51.1993 74.8467 50.9326 73.7801L49.5993 68.9801Z" fill="white"/>
<path d="M17.9998 21.7801C18.3998 22.1801 18.9331 22.3134 19.4665 22.3134C19.9998 22.3134 20.5331 22.1801 20.9331 21.7801C21.7331 20.9801 21.7331 19.7801 20.9331 18.9801L17.1998 15.2467C16.3998 14.4467 15.1998 14.4467 14.3998 15.2467C13.5998 16.0467 13.5998 17.2467 14.3998 18.0467L17.9998 21.7801Z" fill="white"/>
<path d="M62.2662 60.4467C61.4662 59.6467 60.2662 59.6467 59.4662 60.4467C58.6662 61.2467 58.6662 62.4467 59.4662 63.2467L63.0662 66.8467C63.4662 67.2467 63.9995 67.38 64.5329 67.38C65.0662 67.38 65.5995 67.2467 65.9995 66.8467C66.7995 66.0467 66.7995 64.8467 65.9995 64.0467L62.2662 60.4467Z" fill="white"/>
<path d="M6.13289 33.9135L11.3329 35.2468C11.4662 35.2468 11.7329 35.3801 11.8662 35.3801C12.7996 35.3801 13.5996 34.8468 13.7329 33.9135C13.9996 32.8468 13.3329 31.7801 12.2662 31.5135L7.06622 30.1801C5.99956 29.9135 4.93289 30.5801 4.66622 31.6468C4.39956 32.5801 5.06622 33.6468 6.13289 33.9135Z" fill="white"/>
<path d="M73.8658 48.0467L68.9324 46.7133C67.8658 46.4467 66.7991 47.1133 66.5324 48.18C66.2658 49.2467 66.9324 50.3133 67.9991 50.58L72.9324 51.9133C73.0658 51.9133 73.3324 52.0467 73.4658 52.0467C74.3991 52.0467 75.1991 51.5133 75.3324 50.58C75.5991 49.38 74.9324 48.3133 73.8658 48.0467Z" fill="white"/>
<path d="M13.7329 48.0467C13.4662 46.98 12.3996 46.3134 11.3329 46.58L6.13289 47.9134C5.06622 48.18 4.39956 49.2467 4.66622 50.3134C4.93289 51.2467 5.73289 51.78 6.53289 51.78C6.66622 51.78 6.93289 51.78 7.06622 51.6467L12.2662 50.3134C13.3329 50.18 13.9996 49.1134 13.7329 48.0467Z" fill="white"/>
<path d="M68.3991 35.3802C68.5324 35.3802 68.7991 35.3802 68.9324 35.2468L73.8658 33.9135C74.9324 33.6468 75.5991 32.5802 75.3324 31.5135C75.0658 30.4468 73.9991 29.7802 72.9324 30.0468L67.9991 31.3802C66.9324 31.6468 66.2658 32.7135 66.5324 33.7802C66.7991 34.7135 67.5991 35.3802 68.3991 35.3802Z" fill="white"/>
<path d="M17.9993 60.1801L14.266 63.9134C13.466 64.7134 13.466 65.9134 14.266 66.7134C14.666 67.1134 15.1993 67.2467 15.7327 67.2467C16.266 67.2467 16.7993 67.1134 17.1993 66.7134L20.9327 62.9801C21.7327 62.1801 21.7327 60.9801 20.9327 60.1801C20.1327 59.3801 18.666 59.3801 17.9993 60.1801Z" fill="white"/>
<path d="M62.9324 15.1133L59.3324 18.7133C58.5324 19.5133 58.5324 20.7133 59.3324 21.5133C59.7324 21.9133 60.2658 22.0466 60.7991 22.0466C61.3324 22.0466 61.8658 21.9133 62.2658 21.5133L65.8658 17.9133C66.6658 17.1133 66.6658 15.9133 65.8658 15.1133C65.0658 14.4466 63.7324 14.4466 62.9324 15.1133Z" fill="white"/>
<path d="M32.9328 67.2468C31.8661 66.9801 30.7994 67.6468 30.5328 68.7135L29.1994 73.9135C28.9328 74.9801 29.5994 76.0468 30.6661 76.3135C30.7994 76.3135 31.0661 76.4468 31.1994 76.4468C32.1328 76.4468 32.9328 75.9135 33.0661 74.9801L34.3994 69.7801C34.6661 68.5801 33.9994 67.5135 32.9328 67.2468Z" fill="white"/>
<path d="M47.0659 14.4466C47.1992 14.4466 47.4659 14.58 47.5992 14.58C48.5326 14.58 49.3326 14.0466 49.4659 13.1133L50.7992 8.31329C51.0659 7.24663 50.3992 6.17996 49.3326 5.91329C48.2659 5.64663 47.1992 6.31329 46.9326 7.37996L45.5992 12.18C45.4659 13.1133 45.9992 14.18 47.0659 14.4466Z" fill="white"/>
<path d="M47.7326 24.8467C44.2659 24.8467 41.7326 26.18 39.9992 27.6467C38.2659 26.18 35.7326 24.8467 32.2659 24.8467C24.3992 24.8467 19.1992 32.0467 19.1992 38.8467C19.1992 51.6467 34.7992 62.18 39.9992 62.18C45.0659 62.18 60.7992 51.6467 60.7992 38.8467C60.7992 32.0467 55.4659 24.8467 47.7326 24.8467ZM39.9992 58.18C37.3326 58.18 23.1992 49.6467 23.1992 38.8467C23.1992 34.0467 26.7992 28.8467 32.2659 28.8467C35.3326 28.8467 37.3326 30.4467 38.3992 31.6467C38.7992 32.0467 39.3326 32.3133 39.8659 32.3133C40.3992 32.3133 41.0659 32.0467 41.3326 31.6467C42.3992 30.3133 44.3992 28.8467 47.4659 28.8467C52.9326 28.8467 56.5326 34.0467 56.5326 38.8467C56.7992 49.6467 42.6659 58.18 39.9992 58.18Z" fill="white"/>
</svg>
