<svg width="81" height="81" viewBox="0 0 81 81" fill="none" xmlns="http://www.w3.org/2000/svg">
<path d="M75.4334 52.1266C75.4409 52.0512 75.4409 51.9753 75.4334 51.8999L67.1668 19.8599C66.5547 17.4941 65.1008 15.4327 63.0776 14.0621C61.0544 12.6916 58.6007 12.106 56.1766 12.4152C53.7525 12.7243 51.5244 13.907 49.9099 15.7414C48.2954 17.5759 47.4054 19.9362 47.4068 22.3799V25.8999C45.4803 24.3135 43.0623 23.446 40.5668 23.446C38.0712 23.446 35.6532 24.3135 33.7268 25.8999V22.3799C33.7281 19.9362 32.8381 17.5759 31.2236 15.7414C29.6091 13.907 27.381 12.7243 24.9569 12.4152C22.5328 12.106 20.0792 12.6916 18.0559 14.0621C16.0327 15.4327 14.5788 17.4941 13.9668 19.8599L5.67342 51.8599V51.9799C5.19053 53.9418 5.13067 55.984 5.49782 57.9709C5.86497 59.9577 6.65073 61.8437 7.80288 63.5034C8.95504 65.1632 10.4472 66.5588 12.1803 67.5975C13.9133 68.6362 15.8475 69.2942 17.8545 69.5278C19.8614 69.7614 21.8951 69.5652 23.8203 68.9523C25.7456 68.3394 27.5184 67.3238 29.021 65.973C30.5235 64.6222 31.7214 62.9671 32.5351 61.1177C33.3487 59.2683 33.7595 57.267 33.7401 55.2466C33.7401 55.2466 33.7401 55.2466 33.7401 55.1666V54.3132C33.7401 52.4992 34.4607 50.7594 35.7435 49.4766C37.0262 48.1939 38.766 47.4732 40.5801 47.4732C42.3942 47.4732 44.1339 48.1939 45.4167 49.4766C46.6994 50.7594 47.4201 52.4992 47.4201 54.3132V55.3799C47.3705 57.4171 47.7588 59.4413 48.5587 61.3156C49.3586 63.1899 50.5514 64.8706 52.0567 66.2444C53.5619 67.6181 55.3444 68.6527 57.2838 69.2784C59.2233 69.904 61.2744 70.1062 63.2986 69.8711C65.3228 69.636 67.273 68.9692 69.0174 67.9157C70.7618 66.8622 72.2598 65.4466 73.4102 63.7645C74.5605 62.0823 75.3364 60.1729 75.6854 58.1652C76.0345 56.1575 75.9485 54.0982 75.4334 52.1266ZM57.3801 16.3399C58.7067 16.3551 59.9915 16.8057 61.037 17.6223C62.0825 18.439 62.8308 19.5765 63.1668 20.8599L68.9801 43.2599C66.2532 41.583 63.0403 40.8748 59.8611 41.2498C56.6818 41.6248 53.722 43.0611 51.4601 45.3266C51.399 45.3857 51.3412 45.448 51.2868 45.5132V22.3799C51.2867 21.5822 51.4447 20.7924 51.7516 20.0561C52.0584 19.3198 52.5081 18.6516 53.0746 18.09C53.6412 17.5284 54.3133 17.0847 55.0523 16.7843C55.7913 16.4839 56.5824 16.3329 57.3801 16.3399ZM17.8334 20.8599C18.2074 19.4429 19.0838 18.2103 20.2992 17.3916C21.5147 16.5729 22.9864 16.224 24.44 16.41C25.8936 16.596 27.2301 17.3042 28.2003 18.4025C29.1705 19.5008 29.7083 20.9144 29.7134 22.3799V45.5132L29.5401 45.3266C27.2746 43.0484 24.3047 41.6041 21.1138 41.2288C17.9229 40.8536 14.699 41.5694 11.9668 43.2599L17.8334 20.8599ZM26.7134 62.6466C25.2799 64.0815 23.4529 65.0591 21.4637 65.4555C19.4745 65.8519 17.4123 65.6495 15.5382 64.8737C13.6641 64.0979 12.0621 62.7838 10.935 61.0974C9.80795 59.411 9.20635 57.4282 9.20635 55.3999C9.20635 53.3716 9.80795 51.3888 10.935 49.7024C12.0621 48.0161 13.6641 46.7019 15.5382 45.9261C17.4123 45.1503 19.4745 44.9479 21.4637 45.3443C23.4529 45.7408 25.2799 46.7183 26.7134 48.1532C28.6271 50.0829 29.6964 52.6933 29.6864 55.4109C29.6764 58.1286 28.5879 60.7311 26.6601 62.6466H26.7134ZM40.5001 43.4599C38.0058 43.4538 35.5873 44.3165 33.6601 45.8999V34.3132C33.6601 32.4992 34.3807 30.7594 35.6635 29.4766C36.9462 28.1939 38.686 27.4732 40.5001 27.4732C42.3142 27.4732 44.0539 28.1939 45.3367 29.4766C46.6194 30.7594 47.3401 32.4992 47.3401 34.3132V45.9132C45.4147 44.3251 42.996 43.4575 40.5001 43.4599ZM68.8334 62.6466C67.3999 64.0815 65.5729 65.0591 63.5837 65.4555C61.5945 65.8519 59.5323 65.6495 57.6582 64.8737C55.7841 64.0979 54.1821 62.7838 53.055 61.0974C51.928 59.411 51.3264 57.4282 51.3264 55.3999C51.3264 53.3716 51.928 51.3888 53.055 49.7024C54.1821 48.0161 55.7841 46.7019 57.6582 45.9261C59.5323 45.1503 61.5945 44.9479 63.5837 45.3443C65.5729 45.7408 67.3999 46.7183 68.8334 48.1532C70.7509 50.0775 71.8275 52.6834 71.8275 55.3999C71.8275 58.1164 70.7509 60.7223 68.8334 62.6466Z" fill="white"/>
</svg>
