<svg width="64" height="65" viewBox="0 0 64 65" fill="none" xmlns="http://www.w3.org/2000/svg">
<path fill-rule="evenodd" clip-rule="evenodd" d="M12 36.1528C11.4484 36.1528 11 36.6012 11 37.1528V52.1528C11 52.7044 11.4484 53.1528 12 53.1528H17C17.5516 53.1528 18 52.7044 18 52.1528V37.1528C18 36.6012 17.5516 36.1528 17 36.1528H12ZM8 37.1528C8 34.9444 9.79157 33.1528 12 33.1528H17C19.2084 33.1528 21 34.9444 21 37.1528V52.1528C21 54.3612 19.2084 56.1528 17 56.1528H12C9.79157 56.1528 8 54.3612 8 52.1528V37.1528Z" fill="#EBC03F"/>
<path d="M34.4322 46.143H40.0616C41.4231 46.143 42.7459 45.693 43.8274 44.843L49.6595 40.313C50.0554 40.003 50.5189 39.853 50.9824 39.853C51.5521 39.853 52.1121 40.083 52.5466 40.523C52.9811 40.973 53.1936 41.553 53.1936 42.143C53.1936 42.733 52.9811 43.313 52.5466 43.763L47.5449 48.943C46.3958 50.133 44.9378 50.943 43.3542 51.263L36.2765 52.723C35.7454 52.833 35.2047 52.883 34.6639 52.883C33.9977 52.883 33.3314 52.803 32.6748 52.633L26.2826 50.973C25.404 50.743 24.4963 50.633 23.5886 50.633H19.9484C19.1469 50.633 18.5 51.303 18.5 52.133C18.5 52.963 19.1469 53.633 19.9484 53.633H23.5886C24.2646 53.633 24.9212 53.713 25.5778 53.883L31.97 55.543C32.8583 55.773 33.7563 55.883 34.6639 55.883C35.3978 55.883 36.122 55.813 36.8462 55.663L43.9239 54.193C46.0772 53.743 48.047 52.653 49.6016 51.043L54.6033 45.863C55.5979 44.833 56.1 43.473 56.1 42.123C56.1 40.773 55.5979 39.413 54.6033 38.383C53.6088 37.383 52.2956 36.853 50.9824 36.853C49.9106 36.853 48.8291 37.203 47.9215 37.913L42.0893 42.443C41.51 42.893 40.7954 43.143 40.0616 43.143H34.4322C33.6308 43.143 32.9838 43.813 32.9838 44.643C32.9838 45.473 33.6308 46.143 34.4322 46.143Z" fill="#EBC03F"/>
<path fill-rule="evenodd" clip-rule="evenodd" d="M23.2101 35.3775C25.385 33.9249 27.9424 33.1528 30.5551 33.1528C31.6377 33.1528 32.7146 33.2853 33.7655 33.5473L39.4954 34.9798L39.4964 34.9801C41.8501 35.5672 43.5001 37.6829 43.5001 40.1078V40.8653C43.5001 43.7862 41.1335 46.1528 38.2126 46.1528H34.5001C33.6717 46.1528 33.0001 45.4812 33.0001 44.6528C33.0001 43.8244 33.6717 43.1528 34.5001 43.1528H38.2126C39.4767 43.1528 40.5001 42.1294 40.5001 40.8653V40.1078C40.5001 39.058 39.7856 38.144 38.7698 37.8908L33.0397 36.4582C32.2259 36.2554 31.3921 36.1528 30.5551 36.1528C28.5331 36.1528 26.5557 36.7505 24.8758 37.8726L20.332 40.901C19.6426 41.3604 18.7114 41.174 18.2519 40.4847C17.7925 39.7953 17.9789 38.8641 18.6682 38.4046L23.2101 35.3775Z" fill="#EBC03F"/>
<path fill-rule="evenodd" clip-rule="evenodd" d="M35.1424 15.2761C35.4812 12.9517 37.7572 10.8111 40.4694 11.2049L35.1424 15.2761ZM40.4694 11.2049C42.0466 11.4346 42.9459 12.3017 43.4403 13.033C43.6767 13.3828 44.0495 13.6167 44.4673 13.6774C44.8851 13.7381 45.3091 13.62 45.6352 13.352C46.322 12.7877 47.4307 12.2129 49.0069 12.4424C51.7213 12.8368 53.295 15.5275 52.9561 17.8625C52.7958 18.9664 52.1645 20.0533 51.1419 21.1059C50.1225 22.1552 48.797 23.0838 47.4332 23.8621C46.077 24.6362 44.7332 25.2334 43.716 25.635C43.3039 25.7978 42.9501 25.9266 42.6764 26.0206C42.4406 25.8524 42.1379 25.6281 41.7889 25.3546C40.9283 24.68 39.8101 23.7251 38.7302 22.5972C37.6444 21.4631 36.6379 20.1959 35.9592 18.9003C35.2784 17.6006 34.9824 16.3791 35.1424 15.2761M32.1737 14.8444C32.7102 11.1592 36.2838 7.56521 40.9012 8.23609C42.7346 8.50301 44.0555 9.31791 44.9706 10.21C46.1034 9.61306 47.6027 9.20639 49.4387 9.47359M49.4387 9.47359C54.054 10.1444 56.462 14.5937 55.9249 18.2935C55.6427 20.2384 54.5756 21.8768 53.2937 23.1963C52.0085 24.5193 50.4234 25.6097 48.9203 26.4676C47.4096 27.3298 45.9303 27.986 44.8179 28.4253C44.2605 28.6455 43.7881 28.8139 43.4414 28.9285C43.2693 28.9854 43.1205 29.0316 43.0033 29.0649C42.9468 29.0809 42.8838 29.0979 42.8229 29.112C42.7943 29.1185 42.7473 29.1289 42.6923 29.1377C42.6653 29.1421 42.619 29.1489 42.5621 29.1534C42.5259 29.1562 42.3882 29.1671 42.2175 29.1417C42.0491 29.1167 41.9231 29.0677 41.8897 29.0547C41.8372 29.0343 41.7946 29.0145 41.7702 29.0027C41.7207 28.9788 41.679 28.9557 41.6536 28.9413C41.5997 28.9106 41.5445 28.8766 41.4949 28.8451C41.3923 28.7799 41.263 28.6934 41.1143 28.5898C40.8147 28.3813 40.4099 28.0854 39.9383 27.7157C38.9971 26.978 37.7659 25.9281 36.5633 24.6719C35.3666 23.4219 34.1575 21.9259 33.3018 20.2924C32.4483 18.6631 31.8913 16.7887 32.1737 14.8444" fill="#EBC03F"/>
</svg>
