<svg width="65" height="65" viewBox="0 0 65 65" fill="none" xmlns="http://www.w3.org/2000/svg">
<path fill-rule="evenodd" clip-rule="evenodd" d="M13.0538 16.7928C13.9153 13.4749 16.9091 11.1548 20.3407 11.1548C24.4991 11.1548 27.8682 14.5239 27.8682 18.6823V43.2998C27.8682 44.1282 27.1966 44.7998 26.3682 44.7998C25.5397 44.7998 24.8682 44.1282 24.8682 43.2998V18.6823C24.8682 16.1807 22.8422 14.1548 20.3407 14.1548C18.2773 14.1548 16.476 15.5497 15.9575 17.5468L9.73268 41.571C9.5249 42.373 8.70634 42.8546 7.9044 42.6469C7.10246 42.4391 6.6208 41.6205 6.82858 40.8186L13.0538 16.7928Z" fill="#EBC03F"/>
<path fill-rule="evenodd" clip-rule="evenodd" d="M22.6191 38.0136C19.6179 35.0124 14.7521 35.0124 11.7509 38.0136C8.7497 41.0147 8.7497 45.8806 11.7509 48.8818C14.7521 51.883 19.6179 51.883 22.6191 48.8818C25.6203 45.8806 25.6203 41.0147 22.6191 38.0136ZM9.62957 35.8922C13.8023 31.7195 20.5677 31.7195 24.7404 35.8922C28.9132 40.065 28.9132 46.8303 24.7404 51.0031C20.5677 55.1759 13.8023 55.1759 9.62957 51.0031C5.45681 46.8303 5.45681 40.065 9.62957 35.8922Z" fill="#EBC03F"/>
<path fill-rule="evenodd" clip-rule="evenodd" d="M45.6603 14.1548C43.1587 14.1548 41.1328 16.1807 41.1328 18.6823V43.2998C41.1328 44.1282 40.4612 44.7998 39.6328 44.7998C38.8044 44.7998 38.1328 44.1282 38.1328 43.2998V18.6823C38.1328 14.5239 41.5019 11.1548 45.6603 11.1548C49.0919 11.1548 52.0857 13.4749 52.9472 16.7928L59.1724 40.8186C59.3801 41.6205 58.8985 42.4391 58.0965 42.6469C57.2946 42.8546 56.4761 42.373 56.2683 41.571L50.0435 17.5468C49.5247 15.5501 47.7234 14.1548 45.6603 14.1548Z" fill="#EBC03F"/>
<path fill-rule="evenodd" clip-rule="evenodd" d="M24.8672 27.6323C24.8672 23.1365 28.5062 19.4873 32.9997 19.4873C37.4932 19.4873 41.1322 23.1365 41.1322 27.6323C41.1322 28.4607 40.4606 29.1323 39.6322 29.1323C38.8038 29.1323 38.1322 28.4607 38.1322 27.6323C38.1322 24.7882 35.8312 22.4873 32.9997 22.4873C30.1682 22.4873 27.8672 24.7882 27.8672 27.6323C27.8672 28.4607 27.1956 29.1323 26.3672 29.1323C25.5388 29.1323 24.8672 28.4607 24.8672 27.6323Z" fill="#EBC03F"/>
<path fill-rule="evenodd" clip-rule="evenodd" d="M32.9997 37.4873C30.1682 37.4873 27.8672 39.7882 27.8672 42.6323C27.8672 43.4607 27.1956 44.1323 26.3672 44.1323C25.5388 44.1323 24.8672 43.4607 24.8672 42.6323C24.8672 38.1365 28.5062 34.4873 32.9997 34.4873C37.4932 34.4873 41.1322 38.1365 41.1322 42.6323C41.1322 43.4607 40.4606 44.1323 39.6322 44.1323C38.8038 44.1323 38.1322 43.4607 38.1322 42.6323C38.1322 39.7882 35.8312 37.4873 32.9997 37.4873Z" fill="#EBC03F"/>
<path fill-rule="evenodd" clip-rule="evenodd" d="M54.249 38.0136C51.2478 35.0124 46.382 35.0124 43.3808 38.0136C40.3796 41.0147 40.3796 45.8806 43.3808 48.8818C46.382 51.883 51.2478 51.883 54.249 48.8818C57.2502 45.8806 57.2502 41.0147 54.249 38.0136ZM41.2595 35.8922C45.4322 31.7195 52.1976 31.7195 56.3703 35.8922C60.5431 40.065 60.5431 46.8303 56.3703 51.0031C52.1976 55.1759 45.4322 55.1759 41.2595 51.0031C37.0867 46.8303 37.0867 40.065 41.2595 35.8922Z" fill="#EBC03F"/>
</svg>
