<svg width="64" height="65" viewBox="0 0 64 65" fill="none" xmlns="http://www.w3.org/2000/svg">
<path fill-rule="evenodd" clip-rule="evenodd" d="M19.4281 8.4175C20.1115 7.94927 21.0451 8.12372 21.5133 8.80713L31.695 23.6681L36.2546 18.9145C36.8281 18.3166 37.7776 18.2968 38.3755 18.8703C38.9733 19.4437 38.9931 20.3933 38.4197 20.9912L32.9809 26.6613L32.1017 53.7037C32.0747 54.5317 31.3817 55.1811 30.5537 55.1541C29.7257 55.1272 29.0763 54.4342 29.1032 53.6062L29.121 53.0607L22.2735 48.4415L8.9648 43.3539C8.19099 43.0581 7.80348 42.191 8.09929 41.4172C8.39509 40.6434 9.26219 40.2559 10.036 40.5517L23.5054 45.7006C23.6122 45.7414 23.7139 45.7943 23.8087 45.8582L29.2361 49.5196L29.9852 26.4803L19.0385 10.5027C18.5703 9.81932 18.7447 8.88573 19.4281 8.4175Z" fill="#EBC03F"/>
<path fill-rule="evenodd" clip-rule="evenodd" d="M8.53275 31.1624C8.80469 30.3798 9.6595 29.9659 10.442 30.2379L15.8298 32.1102C16.1755 32.2304 16.4655 32.4728 16.6449 32.7919L18.1152 35.4069L23.7866 30.5186C24.4141 29.9777 25.3613 30.0479 25.9021 30.6754C26.443 31.3029 26.3728 32.2501 25.7453 32.7909L19.6152 38.0746L24.2775 46.3664C24.6835 47.0885 24.4273 48.003 23.7052 48.409C22.9831 48.8151 22.0686 48.5588 21.6625 47.8367L14.3083 34.7575L9.45724 33.0716C8.67472 32.7997 8.26081 31.9449 8.53275 31.1624Z" fill="#EBC03F"/>
<path fill-rule="evenodd" clip-rule="evenodd" d="M46.5914 24.1665C47.1078 24.8143 47.0014 25.7581 46.3536 26.2745L39.0483 32.0986L32.4585 49.9612C32.4085 50.0967 32.341 50.2206 32.2596 50.3314L40.3185 42.2948C40.5997 42.0144 40.9806 41.8569 41.3777 41.8569H50.3111L52.1477 38.0274C52.5059 37.2805 53.4018 36.9653 54.1488 37.3236C54.8958 37.6818 55.2109 38.5778 54.8527 39.3247L52.6078 44.0056C52.3582 44.5259 51.8323 44.8569 51.2553 44.8569H41.9978L32.1104 54.7169C31.5238 55.3019 30.574 55.3006 29.9891 54.714C29.4041 54.1274 29.4054 53.1777 29.992 52.5927L31.9382 50.6519C31.546 50.9388 31.0221 51.0301 30.532 50.8493C29.7548 50.5626 29.3572 49.7001 29.6439 48.9229L36.3786 30.6676C36.4734 30.4106 36.6367 30.1846 36.8508 30.0138L44.4835 23.9287C45.1312 23.4123 46.075 23.5188 46.5914 24.1665Z" fill="#EBC03F"/>
</svg>
